<svg xmlns="http://www.w3.org/2000/svg" width="300" height="300" viewBox="0 0 300 300">
  <g fill="none" fill-rule="evenodd">
    <circle cx="100" cy="100" r="100" fill="#F3F6FA" transform="translate(50 50)"/>
    <path fill="#FFF" d="M178.5996,146.4261 L215.6856,146.4261 C223.6326,146.4261 223.6326,167.6181 215.6856,167.6181 C226.2816,167.6181 228.9306,191.4591 215.6856,191.4591 C228.9306,191.4591 228.9306,212.6511 213.0376,212.6511 C217.0106,216.6241 218.3346,225.8961 207.7386,225.8961 L157.4086,225.8961 C152.1106,225.8961 133.5676,223.2471 125.6206,220.5981 L125.6206,164.9691 C133.5676,159.6711 168.0046,127.8841 170.6536,101.3931 C173.3026,74.9041 199.7916,98.7441 178.5996,146.4261 Z M125.4169,162.8859 L125.4169,223.5509 L110.9559,223.5509 L110.9559,162.8859 L125.4169,162.8859 Z"/>
    <path fill="#17479E" d="M182.7946,91.3503 C186.4556,95.3993 188.6266,102.7723 188.7506,111.5803 C188.8916,121.5153 186.4366,132.8153 181.6346,144.4263 L215.6856,144.4263 C220.3726,144.4263 223.6456,149.6053 223.6456,157.0213 C223.6456,161.3593 222.5266,164.9313 220.6596,167.1503 C224.4836,169.7323 226.6536,175.1943 226.6536,180.5213 C226.6536,185.2733 224.9916,189.0683 222.1896,191.2893 C225.5696,193.5073 227.3106,197.4353 227.3106,201.3313 C227.3106,204.7793 226.0426,208.0143 223.7406,210.4403 C222.3506,211.9043 220.0826,213.5833 216.6266,214.2983 C217.9266,216.8753 218.4666,220.0573 217.3366,222.7863 C216.5456,224.6943 214.2476,227.8963 207.7386,227.8963 L157.4086,227.8963 C152.182447,227.8963 136.648571,225.696102 127.724882,223.306128 L127.7261,223.5506 C127.7261,224.6546 126.8301,225.5506 125.7261,225.5506 L108.1211,225.5506 C107.0161,225.5506 106.1211,224.6546 106.1211,223.5506 C106.1211,222.4466 107.0161,221.5506 108.1211,221.5506 L123.7261,221.5506 L123.725887,221.238581 C123.657331,221.036053 123.6206,220.820343 123.6206,220.5983 L123.6206,164.9693 L123.624,164.885 L108.1211,164.8856 C107.0161,164.8856 106.1211,163.9906 106.1211,162.8856 C106.1211,161.7816 107.0161,160.8856 108.1211,160.8856 L125.7261,160.8856 C126.23825,160.8856 126.705636,161.078425 127.059574,161.395389 C137.604109,152.921881 166.306915,124.759346 168.6626,101.1943 C169.3526,94.2983 171.6936,89.8553 175.2546,88.6843 C177.7686,87.8583 180.5156,88.8303 182.7946,91.3503 Z M176.5046,92.4843 C175.0296,92.9693 173.2406,95.6163 172.6436,101.5923 C170.012836,127.899944 137.705802,158.666227 127.72489,165.936599 L127.726,219.155 L128.013216,219.23783 C136.513123,221.636471 152.853769,223.8963 157.4086,223.8963 L207.7386,223.8963 C209.9326,223.8963 212.7366,223.4373 213.6406,221.2553 C214.5766,218.9963 213.3216,215.7643 211.6226,214.0643 C211.0506,213.4933 210.8796,212.6323 211.1896,211.8853 C211.4986,211.1383 212.2276,210.6503 213.0376,210.6503 C216.3016,210.6503 218.9986,209.6253 220.8396,207.6873 C222.4106,206.0323 223.3106,203.7153 223.3106,201.3313 C223.3106,197.4133 220.9536,193.4583 215.6856,193.4583 C214.5816,193.4583 213.6856,192.5633 213.6856,191.4583 C213.6856,190.3543 214.5816,189.4583 215.6856,189.4583 C222.3176,189.4583 222.6536,182.0143 222.6536,180.5213 C222.6536,175.2773 219.9896,169.6183 215.6856,169.6183 C214.5816,169.6183 213.6856,168.7223 213.6856,167.6183 C213.6856,166.5133 214.5816,165.6183 215.6856,165.6183 C218.1646,165.6183 219.6456,161.2473 219.6456,157.0213 C219.6456,152.7963 218.1646,148.4263 215.6856,148.4263 L178.5996,148.4263 C177.9226,148.4263 177.2916,148.0833 176.9236,147.5163 C176.5546,146.9483 176.4976,146.2323 176.7726,145.6133 C183.5486,130.3683 184.8516,118.7223 184.7516,111.6373 C184.6426,103.9023 182.8016,97.3223 179.8286,94.0333 C179.1406,93.2733 177.7956,92.0583 176.5046,92.4843 Z M118.501,169.4685 C119.605,169.4685 120.501,170.3645 120.501,171.4685 L120.501,179.0525 C120.501,180.1565 119.605,181.0525 118.501,181.0525 C117.397,181.0525 116.501,180.1565 116.501,179.0525 L116.501,171.4685 C116.501,170.3645 117.397,169.4685 118.501,169.4685 Z M223.3545,86 C224.4585,86 225.3545,86.895 225.3545,88 L225.354,95.402 L232.71,95.4026 C233.814,95.4026 234.71,96.2986 234.71,97.4026 C234.71,98.5066 233.814,99.4026 232.71,99.4026 L225.354,99.402 L225.3545,106.804 C225.3545,107.908 224.4585,108.804 223.3545,108.804 C222.2505,108.804 221.3545,107.908 221.3545,106.804 L221.354,99.402 L214,99.4026 C212.896,99.4026 212,98.5066 212,97.4026 C212,96.2986 212.896,95.4026 214,95.4026 L221.354,95.402 L221.3545,88 C221.3545,86.895 222.2505,86 223.3545,86 Z M75.3545,72 C76.4585,72 77.3545,72.895 77.3545,74 L77.354,81.402 L84.71,81.4026 C85.814,81.4026 86.71,82.2986 86.71,83.4026 C86.71,84.5066 85.814,85.4026 84.71,85.4026 L77.354,85.402 L77.3545,92.804 C77.3545,93.908 76.4585,94.804 75.3545,94.804 C74.2505,94.804 73.3545,93.908 73.3545,92.804 L73.354,85.402 L66,85.4026 C64.896,85.4026 64,84.5066 64,83.4026 C64,82.2986 64.896,81.4026 66,81.4026 L73.354,81.402 L73.3545,74 C73.3545,72.895 74.2505,72 75.3545,72 Z"/>
    <path fill="#FFD200" d="M78.0767,197.4868 C79.1807,197.4868 80.0767,198.3818 80.0767,199.4868 L80.0766,206.8888 L87.4316,206.8895 C88.5356,206.8895 89.4316,207.7855 89.4316,208.8895 C89.4316,209.9935 88.5356,210.8895 87.4316,210.8895 L80.0766,210.8888 L80.0767,218.2918 C80.0767,219.3958 79.1807,220.2918 78.0767,220.2918 C76.9727,220.2918 76.0767,219.3958 76.0767,218.2918 L76.0766,210.8888 L68.7216,210.8895 C67.6166,210.8895 66.7216,209.9935 66.7216,208.8895 C66.7216,207.7855 67.6166,206.8895 68.7216,206.8895 L76.0766,206.8888 L76.0767,199.4868 C76.0767,198.3818 76.9727,197.4868 78.0767,197.4868 Z M106.0766,112.4868 C107.1806,112.4868 108.0766,113.3818 108.0766,114.4868 L108.0766,121.8888 L115.4316,121.8895 C116.5356,121.8895 117.4316,122.7855 117.4316,123.8895 C117.4316,124.9935 116.5356,125.8895 115.4316,125.8895 L108.0766,125.8888 L108.0766,133.2918 C108.0766,134.3958 107.1806,135.2918 106.0766,135.2918 C104.9726,135.2918 104.0766,134.3958 104.0766,133.2918 L104.0766,125.8888 L96.7216,125.8895 C95.6166,125.8895 94.7216,124.9935 94.7216,123.8895 C94.7216,122.7855 95.6166,121.8895 96.7216,121.8895 L104.0766,121.8888 L104.0766,114.4868 C104.0766,113.3818 104.9726,112.4868 106.0766,112.4868 Z"/>
  </g>
</svg>
