<?xml version="1.0" encoding="UTF-8"?>
<svg width="30px" height="30px" viewBox="0 0 30 30" version="1.1" xmlns="http://www.w3.org/2000/svg" xmlns:xlink="http://www.w3.org/1999/xlink">
    <title>*Ic / Interface / phone / Filled / 30px</title>
    <g id="*Ic-/-Interface-/-phone-/-Filled-/-30px" stroke="none" stroke-width="1" fill="none" fill-rule="evenodd">
        <g id="01_Guidelines/Iconography/01_Interface/45px">
            <path d="M15,30 C6.75,30 0,23.25 0,15 C0,6.75 6.75,0 15,0 C23.25,0 30,6.75 30,15 C30,23.25 23.25,30 15,30 L15,30 Z" id="Fill-1" fill="#17479E"></path>
            <g id="Group" transform="translate(3.000000, 3.000000)">
                <rect id="Rectangle" x="0" y="0" width="24" height="24"></rect>
                <path d="M2.20512614,18.8018175 C3.33823919,21.5178221 5.99424373,21.9938229 6.86224521,21.9938229 C7.11713454,21.9938229 11.0866969,22.2042677 16.7929288,16.7915918 C21.3851589,12.4355844 21.946271,7.75135415 21.99516,6.86135263 C22.0427156,5.99446226 21.7944929,3.81979188 18.8029323,2.20401134 C18.432265,2.00378878 17.6973748,1.91512196 17.5075967,2.10490006 C17.4233744,2.18912243 14.9124812,6.32090726 14.8464811,6.45779639 C14.780481,6.59446329 14.7473698,6.72913018 14.7473698,6.86113041 C14.7473698,7.0497974 14.8818145,7.2857978 15.150926,7.5689094 C15.4198154,7.85202099 15.7122603,8.11157699 16.0284831,8.34735517 C16.3447059,8.58335557 16.6371508,8.833356 16.9062624,9.09757867 C17.1751517,9.36157912 17.3095964,9.57891283 17.3095964,9.7486909 C17.2913741,10.1893583 16.9302624,11.7678055 14.1793688,14.1849207 C11.4280308,16.6027026 10.1026952,17.2838149 9.97536164,17.3309261 C9.84802809,17.3780373 9.74180569,17.4013706 9.65691665,17.4013706 C9.48713859,17.4013706 9.26980488,17.2671482 9.00580443,16.9982588 C8.74158176,16.7291473 7.85335802,15.5118119 7.57046865,15.2424781 C7.28713483,14.9738109 7.05135665,14.8395885 6.86224521,14.8395885 C6.73024499,14.8395885 6.59580031,14.8724774 6.45935564,14.9384775 C6.32224429,15.0044777 2.18512611,17.4253707 2.10601486,17.5062597 C1.89134783,17.7262601 2.04312587,18.4129279 2.20512614,18.8018175" id="*Ic-/-Interface-/-Phone-/-Filled-/-24px-2" fill="#FFFFFF"></path>
            </g>
        </g>
    </g>
</svg>